<mxfile host="app.diagrams.net" modified="2022-03-14T02:41:05.061Z" agent="5.0 (Windows)" etag="_iLxllfK9kuxYqUZ-Oxk" version="17.1.2" type="github">
  <diagram id="C5RBs43oDa-KdzZeNtuy" name="Page-1">
    <mxGraphModel dx="1117" dy="600" grid="1" gridSize="10" guides="1" tooltips="1" connect="1" arrows="1" fold="1" page="1" pageScale="1" pageWidth="827" pageHeight="1169" math="0" shadow="0">
      <root>
        <mxCell id="WIyWlLk6GJQsqaUBKTNV-0" />
        <mxCell id="WIyWlLk6GJQsqaUBKTNV-1" parent="WIyWlLk6GJQsqaUBKTNV-0" />
        <mxCell id="f3xlX-Rbldaew8a3dG-a-3" value="" style="edgeStyle=orthogonalEdgeStyle;rounded=0;orthogonalLoop=1;jettySize=auto;html=1;" edge="1" parent="WIyWlLk6GJQsqaUBKTNV-1" source="f3xlX-Rbldaew8a3dG-a-0" target="f3xlX-Rbldaew8a3dG-a-1">
          <mxGeometry relative="1" as="geometry" />
        </mxCell>
        <mxCell id="f3xlX-Rbldaew8a3dG-a-0" value="Start" style="rounded=1;whiteSpace=wrap;html=1;fillColor=#d5e8d4;strokeColor=#82b366;" vertex="1" parent="WIyWlLk6GJQsqaUBKTNV-1">
          <mxGeometry x="340" y="50" width="120" height="60" as="geometry" />
        </mxCell>
        <mxCell id="f3xlX-Rbldaew8a3dG-a-5" value="" style="edgeStyle=orthogonalEdgeStyle;rounded=0;orthogonalLoop=1;jettySize=auto;html=1;" edge="1" parent="WIyWlLk6GJQsqaUBKTNV-1" source="f3xlX-Rbldaew8a3dG-a-1" target="f3xlX-Rbldaew8a3dG-a-4">
          <mxGeometry relative="1" as="geometry" />
        </mxCell>
        <mxCell id="f3xlX-Rbldaew8a3dG-a-1" value="Input Num" style="shape=parallelogram;perimeter=parallelogramPerimeter;whiteSpace=wrap;html=1;fixedSize=1;fillColor=#dae8fc;strokeColor=#6c8ebf;" vertex="1" parent="WIyWlLk6GJQsqaUBKTNV-1">
          <mxGeometry x="340" y="140" width="120" height="60" as="geometry" />
        </mxCell>
        <mxCell id="f3xlX-Rbldaew8a3dG-a-7" value="" style="edgeStyle=orthogonalEdgeStyle;rounded=0;orthogonalLoop=1;jettySize=auto;html=1;" edge="1" parent="WIyWlLk6GJQsqaUBKTNV-1" source="f3xlX-Rbldaew8a3dG-a-4" target="f3xlX-Rbldaew8a3dG-a-6">
          <mxGeometry relative="1" as="geometry" />
        </mxCell>
        <mxCell id="f3xlX-Rbldaew8a3dG-a-4" value="r = Num Mod 2" style="whiteSpace=wrap;html=1;fillColor=#f8cecc;strokeColor=#b85450;" vertex="1" parent="WIyWlLk6GJQsqaUBKTNV-1">
          <mxGeometry x="340" y="230" width="120" height="60" as="geometry" />
        </mxCell>
        <mxCell id="f3xlX-Rbldaew8a3dG-a-9" value="" style="edgeStyle=orthogonalEdgeStyle;rounded=0;orthogonalLoop=1;jettySize=auto;html=1;" edge="1" parent="WIyWlLk6GJQsqaUBKTNV-1" source="f3xlX-Rbldaew8a3dG-a-6" target="f3xlX-Rbldaew8a3dG-a-8">
          <mxGeometry relative="1" as="geometry" />
        </mxCell>
        <mxCell id="f3xlX-Rbldaew8a3dG-a-11" value="" style="edgeStyle=orthogonalEdgeStyle;rounded=0;orthogonalLoop=1;jettySize=auto;html=1;" edge="1" parent="WIyWlLk6GJQsqaUBKTNV-1" source="f3xlX-Rbldaew8a3dG-a-6" target="f3xlX-Rbldaew8a3dG-a-10">
          <mxGeometry relative="1" as="geometry" />
        </mxCell>
        <mxCell id="f3xlX-Rbldaew8a3dG-a-6" value="r = 0" style="rhombus;whiteSpace=wrap;html=1;fillColor=#fff2cc;strokeColor=#d6b656;" vertex="1" parent="WIyWlLk6GJQsqaUBKTNV-1">
          <mxGeometry x="320" y="320" width="160" height="80" as="geometry" />
        </mxCell>
        <mxCell id="f3xlX-Rbldaew8a3dG-a-15" value="" style="edgeStyle=orthogonalEdgeStyle;rounded=0;orthogonalLoop=1;jettySize=auto;html=1;" edge="1" parent="WIyWlLk6GJQsqaUBKTNV-1" source="f3xlX-Rbldaew8a3dG-a-8" target="f3xlX-Rbldaew8a3dG-a-14">
          <mxGeometry relative="1" as="geometry">
            <Array as="points">
              <mxPoint x="140" y="490" />
            </Array>
          </mxGeometry>
        </mxCell>
        <mxCell id="f3xlX-Rbldaew8a3dG-a-8" value="Print &quot;Number is even&quot;" style="shape=parallelogram;perimeter=parallelogramPerimeter;whiteSpace=wrap;html=1;fixedSize=1;fillColor=#dae8fc;strokeColor=#6c8ebf;" vertex="1" parent="WIyWlLk6GJQsqaUBKTNV-1">
          <mxGeometry x="60" y="330" width="160" height="60" as="geometry" />
        </mxCell>
        <mxCell id="f3xlX-Rbldaew8a3dG-a-10" value="Print &quot;Number is odd&quot;" style="shape=parallelogram;perimeter=parallelogramPerimeter;whiteSpace=wrap;html=1;fixedSize=1;fillColor=#dae8fc;strokeColor=#6c8ebf;" vertex="1" parent="WIyWlLk6GJQsqaUBKTNV-1">
          <mxGeometry x="580" y="330" width="150" height="60" as="geometry" />
        </mxCell>
        <mxCell id="f3xlX-Rbldaew8a3dG-a-12" value="Yes" style="text;html=1;align=center;verticalAlign=middle;resizable=0;points=[];autosize=1;strokeColor=none;fillColor=none;" vertex="1" parent="WIyWlLk6GJQsqaUBKTNV-1">
          <mxGeometry x="230" y="340" width="40" height="20" as="geometry" />
        </mxCell>
        <mxCell id="f3xlX-Rbldaew8a3dG-a-13" value="No" style="text;html=1;align=center;verticalAlign=middle;resizable=0;points=[];autosize=1;strokeColor=none;fillColor=none;" vertex="1" parent="WIyWlLk6GJQsqaUBKTNV-1">
          <mxGeometry x="525" y="340" width="30" height="20" as="geometry" />
        </mxCell>
        <mxCell id="f3xlX-Rbldaew8a3dG-a-14" value="End" style="rounded=1;whiteSpace=wrap;html=1;fillColor=#d5e8d4;strokeColor=#82b366;" vertex="1" parent="WIyWlLk6GJQsqaUBKTNV-1">
          <mxGeometry x="340" y="460" width="120" height="60" as="geometry" />
        </mxCell>
        <mxCell id="f3xlX-Rbldaew8a3dG-a-19" value="" style="edgeStyle=orthogonalEdgeStyle;rounded=0;orthogonalLoop=1;jettySize=auto;html=1;" edge="1" parent="WIyWlLk6GJQsqaUBKTNV-1" target="f3xlX-Rbldaew8a3dG-a-14">
          <mxGeometry relative="1" as="geometry">
            <mxPoint x="650" y="390" as="sourcePoint" />
            <mxPoint x="850" y="490" as="targetPoint" />
            <Array as="points">
              <mxPoint x="650" y="490" />
            </Array>
          </mxGeometry>
        </mxCell>
      </root>
    </mxGraphModel>
  </diagram>
</mxfile>
